# xmcd
#
# Track frame offsets: 
#        150
#        8696
#        20916
#        26564
#        33019
#        44381
#        52103
#        65103
#        72594
#        78296
#        83327
#        96127
#        103646
#        117480
#        137670
#        144341
#        149160
#        154603
#        161150
#        170305
#        183193
#        194221
#        206266
#        213986
#        222374
#
# Disc length: 3103 seconds
#
# Revision: 1
# Processed by: cddbd v1.5.2PL0 Copyright (c) Steve Scherf et al.
# Submitted via: ExactAudioCopy v1.3
#
DISCID=6b0c1d19
DTITLE=小紫荊兒童合唱團 - 親子兒歌－兒歌快樂唱 2
DYEAR=2000
DGENRE=Country
TTITLE0=世上只有媽媽好
TTITLE1=親親爹哋
TTITLE2=洗白白
TTITLE3=生日快樂
TTITLE4=晴天、雨天、孩子天
TTITLE5=小時候
TTITLE6=生日會
TTITLE7=小太陽
TTITLE8=小樹苗
TTITLE9=小幼苗
TTITLE10=童年
TTITLE11=月光光，照地堂
TTITLE12=好好爸爸
TTITLE13=讀書好
TTITLE14=爸爸的笑
TTITLE15=可愛的家
TTITLE16=儲蓄歌
TTITLE17=先生拜拜
TTITLE18=雞公仔
TTITLE19=淘氣的爸爸
TTITLE20=我愛我的家（國語）
TTITLE21=甜蜜的家庭（國語）
TTITLE22=夜歌（國語）
TTITLE23=小花貓（國語）
TTITLE24=媽媽的眼睛（國語）
EXTD=
EXTT0=
EXTT1=
EXTT2=
EXTT3=
EXTT4=
EXTT5=
EXTT6=
EXTT7=
EXTT8=
EXTT9=
EXTT10=
EXTT11=
EXTT12=
EXTT13=
EXTT14=
EXTT15=
EXTT16=
EXTT17=
EXTT18=
EXTT19=
EXTT20=
EXTT21=
EXTT22=
EXTT23=
EXTT24=
PLAYORDER=
